Coordinates
version=1
nRows=16
nColumns=63
inDegrees=yes

Units are S.I. units (second, meters, Newtons, ...)
If the header above contains a line with 'inDegrees', this indicates whether rotational values are in degrees (yes) or radians (no).

endheader
time	pelvis_tilt	pelvis_list	pelvis_rotation	pelvis_tx	pelvis_ty	pelvis_tz	hip_flexion_r	hip_adduction_r	hip_rotation_r	knee_angle_r	knee_angle_r_beta	ankle_angle_r	subtalar_angle_r	mtp_angle_r	hip_flexion_l	hip_adduction_l	hip_rotation_l	knee_angle_l	knee_angle_l_beta	ankle_angle_l	subtalar_angle_l	mtp_angle_l	L5_S1_Flex_Ext	L5_S1_Lat_Bending	L5_S1_axial_rotation	L4_L5_Flex_Ext	L4_L5_Lat_Bending	L4_L5_axial_rotation	L3_L4_Flex_Ext	L3_L4_Lat_Bending	L3_L4_axial_rotation	L2_L3_Flex_Ext	L2_L3_Lat_Bending	L2_L3_axial_rotation	L1_L2_Flex_Ext	L1_L2_Lat_Bending	L1_L2_axial_rotation	L1_T12_Flex_Ext	L1_T12_Lat_Bending	L1_T12_axial_rotation	Abs_r3	Abs_r2	Abs_r1	Abs_t1	Abs_t2	neck_flexion	neck_bending	neck_rotation	arm_flex_r	arm_add_r	arm_rot_r	elbow_flex_r	pro_sup_r	wrist_flex_r	wrist_dev_r	arm_flex_l	arm_add_l	arm_rot_l	elbow_flex_l	pro_sup_l	wrist_flex_l	wrist_dev_l
4.716667	-1.315400	-1.096456	101.908426	0.223421	1.028205	0.122872	1.186479	-0.294125	-23.171772	17.735128	0.309536	37.781764	16.574535	0.000000	3.701487	-3.515005	-12.664798	18.078138	0.315523	32.855751	17.951248	0.000000	0.214365	-0.058452	-1.007256	0.398097	-0.077741	-1.070209	0.352180	-0.142119	-1.070209	0.244998	-0.142119	-0.881349	0.199059	-0.119194	-0.818395	0.122488	-0.090541	-0.755442	1.531187	-0.661215	-5.602055	0.000000	0.000000	4.034341	0.402549	-12.172342	32.731908	-54.231754	67.208177	108.814454	45.738162	9.130816	14.817422	16.424174	-52.437213	62.594070	98.962358	88.918668	-13.737753	-7.490339
4.733333	-1.498517	-1.158538	102.561183	0.222124	1.027677	0.121488	0.655429	-0.316004	-23.683589	16.847183	0.294039	38.056674	16.723989	0.000000	3.559089	-3.147757	-11.845523	17.694844	0.308833	33.199807	17.925274	0.000000	0.212794	-0.097052	-1.058537	0.395181	-0.129080	-1.124696	0.349600	-0.235973	-1.124696	0.243203	-0.235973	-0.926220	0.197601	-0.197909	-0.860061	0.121591	-0.150334	-0.793903	1.519969	-1.097875	-5.887266	0.000000	0.000000	6.619826	-0.004026	-12.098294	30.703956	-53.870706	65.485926	108.300056	49.218012	9.678698	15.078800	14.113513	-50.833768	59.421425	97.720659	88.930101	-12.664218	-6.584057
4.750000	-1.657329	-1.264333	103.181083	0.220734	1.026858	0.120521	0.265362	-0.342745	-24.139775	16.064469	0.280378	38.390594	16.826129	0.000000	3.531193	-2.803628	-11.059553	17.400759	0.303701	33.595907	17.899406	0.000000	0.210465	-0.130485	-1.106686	0.390855	-0.173546	-1.175854	0.345773	-0.317262	-1.175854	0.240541	-0.317262	-0.968350	0.195438	-0.266086	-0.899182	0.120260	-0.202122	-0.830014	1.503331	-1.476077	-6.155054	0.000000	0.000000	9.175225	-0.360146	-11.837852	28.573152	-53.301400	63.574899	107.527921	53.097455	10.425807	15.437183	11.910567	-49.054080	56.293098	96.175529	88.779982	-11.490102	-5.609062
4.766667	-1.779168	-1.418981	103.742651	0.219298	1.025779	0.120090	0.050290	-0.374539	-24.514658	15.428446	0.269277	38.764849	16.849548	0.000000	3.631039	-2.496750	-10.331731	17.212437	0.300414	34.013394	17.866064	0.000000	0.207765	-0.157697	-1.146013	0.385841	-0.209737	-1.217638	0.341337	-0.383425	-1.217638	0.237455	-0.383425	-1.002761	0.192931	-0.321576	-0.931135	0.118717	-0.244273	-0.859509	1.484046	-1.783902	-6.373778	0.000000	0.000000	11.639335	-0.652549	-11.431790	26.431628	-52.529907	61.528861	106.473554	57.306398	11.351721	15.930260	9.929269	-47.122472	53.316963	94.341886	88.512767	-10.230597	-4.499259
4.783333	-1.843106	-1.623617	104.259395	0.217841	1.024482	0.120275	0.003439	-0.410423	-24.902493	14.932293	0.260618	39.151552	16.888850	0.000000	3.876768	-2.252344	-9.665051	17.157318	0.299452	34.424626	17.828739	0.000000	0.204695	-0.177561	-1.174873	0.380139	-0.236156	-1.248303	0.336293	-0.431721	-1.248303	0.233946	-0.431721	-1.028014	0.190080	-0.362082	-0.954585	0.116963	-0.275042	-0.881155	1.462114	-2.008604	-6.534294	0.000000	0.000000	13.992085	-0.861104	-10.996520	24.252510	-51.600187	59.263010	105.099051	61.978811	12.450667	16.461170	8.390884	-45.062497	50.732878	92.223680	88.070418	-8.896444	-3.358839
4.800000	-1.851478	-1.877470	104.706948	0.216431	1.023024	0.121125	0.132387	-0.444473	-25.250960	14.586294	0.254579	39.512354	16.884955	0.000000	4.250423	-2.065134	-9.085425	17.210879	0.300387	34.795010	17.781998	0.000000	0.202216	-0.189751	-1.201584	0.375536	-0.252368	-1.276683	0.332221	-0.461360	-1.276683	0.231113	-0.461360	-1.051386	0.187778	-0.386940	-0.976287	0.115546	-0.293924	-0.901188	1.444410	-2.146498	-6.682850	0.000000	0.000000	16.172667	-0.988367	-10.464371	22.289684	-50.465765	57.037558	103.291679	66.720417	13.733376	16.962698	7.247653	-42.946047	48.521696	89.829147	87.420402	-7.556629	-2.346313
4.816667	-1.808220	-2.162875	105.135579	0.215067	1.021490	0.122665	0.403524	-0.484174	-25.641665	14.384827	0.251063	39.812961	16.854641	0.000000	4.740195	-1.921905	-8.505320	17.359669	0.302983	35.093390	17.688332	0.000000	0.199227	-0.196244	-1.232476	0.369985	-0.261005	-1.309506	0.327310	-0.477148	-1.309506	0.227697	-0.477148	-1.078417	0.185002	-0.400181	-1.001387	0.113838	-0.303982	-0.924357	1.423060	-2.219953	-6.854664	0.000000	0.000000	18.112838	-0.990529	-9.936725	20.551812	-49.162715	54.922419	101.016166	71.370156	14.970290	17.246814	6.729923	-40.801846	47.014053	87.124318	86.492102	-6.439239	-1.701186
4.833333	-1.717711	-2.478070	105.513153	0.213849	1.019914	0.124886	0.822489	-0.531574	-26.032117	14.349003	0.250437	40.028104	16.759644	0.000000	5.332214	-1.825586	-7.982361	17.589702	0.306998	35.320591	17.582904	0.000000	0.196361	-0.197987	-1.263968	0.364662	-0.263323	-1.342966	0.322602	-0.481385	-1.342966	0.224421	-0.481385	-1.105972	0.182341	-0.403735	-1.026974	0.112201	-0.306682	-0.947976	1.402589	-2.239667	-7.029812	0.000000	0.000000	19.782923	-0.882194	-9.438166	19.114372	-47.681617	52.960648	98.264776	75.676574	16.199231	17.425125	6.799082	-38.679315	46.170459	84.119719	85.367054	-5.488989	-1.415207
4.850000	-1.580992	-2.820074	105.870429	0.212751	1.018331	0.127742	1.366940	-0.592704	-26.488942	14.468836	0.252529	40.149311	16.644934	0.000000	6.025318	-1.762752	-7.444204	17.886578	0.312180	35.483248	17.426353	0.000000	0.195643	-0.195058	-1.307214	0.363329	-0.259427	-1.388915	0.321422	-0.474265	-1.388915	0.223601	-0.474265	-1.143812	0.181674	-0.397763	-1.062111	0.111791	-0.302145	-0.980410	1.397460	-2.206538	-7.270331	0.000000	0.000000	21.163642	-0.662232	-8.943246	18.081060	-46.049010	51.393366	95.057428	79.358077	17.183784	17.442993	7.412764	-36.620192	46.007223	80.822212	84.053453	-4.871450	-1.593856
4.866667	-1.409544	-3.182832	106.203257	0.211806	1.016765	0.131147	2.031406	-0.686075	-27.006220	14.769792	0.257781	40.176721	16.528546	0.000000	6.804434	-1.725891	-6.914443	18.238822	0.318327	35.593785	17.241915	0.000000	0.197634	-0.189036	-1.359416	0.367027	-0.251418	-1.444380	0.324694	-0.459622	-1.444380	0.225876	-0.459622	-1.189489	0.183523	-0.385482	-1.104526	0.112928	-0.292817	-1.019562	1.411683	-2.138411	-7.560665	0.000000	0.000000	22.281150	-0.368095	-8.480334	17.463015	-44.297029	50.226534	91.494760	82.267628	17.929501	17.526160	8.477702	-34.657267	46.461355	77.253261	82.531307	-4.472781	-2.135292
4.883333	-1.208385	-3.558761	106.510147	0.211033	1.015241	0.134994	2.795498	-0.812693	-27.575186	15.241449	0.266013	40.122237	16.414191	0.000000	7.651383	-1.705670	-6.383649	18.630416	0.325162	35.655530	17.005610	0.000000	0.202651	-0.180110	-1.422852	0.376343	-0.239546	-1.511781	0.332935	-0.437919	-1.511781	0.231610	-0.437919	-1.244996	0.188181	-0.367280	-1.156068	0.115795	-0.278990	-1.067139	1.447514	-2.037439	-7.913479	0.000000	0.000000	23.178309	-0.010185	-8.007580	17.327051	-42.467536	49.660870	87.650979	84.312150	18.353710	17.645067	9.853315	-32.810686	47.315196	73.493833	80.990936	-4.277317	-2.878491
4.900000	-0.977819	-3.937397	106.779568	0.210450	1.013780	0.139165	3.639797	-0.967074	-28.170220	15.871699	0.277013	40.002610	16.307360	0.000000	8.538676	-1.703098	-5.860602	19.037023	0.332259	35.670236	16.714982	0.000000	0.209428	-0.167876	-1.491114	0.388929	-0.223275	-1.584309	0.344069	-0.408173	-1.584309	0.239355	-0.408173	-1.304725	0.194475	-0.342332	-1.211530	0.119667	-0.260039	-1.118336	1.495924	-1.899043	-8.293130	0.000000	0.000000	23.926291	0.373431	-7.557897	17.641741	-40.624087	49.737646	83.626079	85.481683	18.473574	17.749562	11.502159	-31.078989	48.522543	69.624293	79.580084	-4.462922	-3.703563
4.916667	-0.728548	-4.345479	107.020960	0.210033	1.012340	0.143525	4.582620	-1.164340	-28.798470	16.655036	0.290685	39.845338	16.220955	0.000000	9.487302	-1.705992	-5.356417	19.462450	0.339684	35.650578	16.373235	0.000000	0.222467	-0.153462	-1.569687	0.413143	-0.204104	-1.667792	0.365491	-0.373127	-1.667792	0.254257	-0.373127	-1.373476	0.206583	-0.312939	-1.275370	0.127118	-0.237712	-1.177265	1.589059	-1.735991	-8.730127	0.000000	0.000000	24.585194	0.763048	-7.062121	18.391763	-38.772124	50.412655	79.487876	86.029852	18.446167	17.930082	13.179535	-29.483980	49.751351	65.786119	78.398978	-4.671180	-4.329293
4.933333	-0.442276	-4.762211	107.219627	0.209746	1.010941	0.147906	5.584310	-1.367960	-29.425043	17.549953	0.306304	39.659986	16.160671	0.000000	10.456613	-1.739590	-4.883650	19.889502	0.347137	35.606130	15.990106	0.000000	0.239164	-0.133172	-1.650506	0.444151	-0.177119	-1.753663	0.392922	-0.323795	-1.753663	0.273340	-0.323795	-1.444193	0.222087	-0.271565	-1.341036	0.136658	-0.206284	-1.237879	1.708321	-1.506470	-9.179619	0.000000	0.000000	25.199167	1.099314	-6.536472	19.523946	-36.984193	51.674987	75.325990	86.035898	18.333081	18.080488	14.819354	-27.993362	50.948718	62.081677	77.500546	-5.045377	-4.682948
4.950000	-0.136577	-5.193865	107.392416	0.209581	1.009577	0.152130	6.625833	-1.585399	-30.062908	18.527343	0.323363	39.462984	16.134751	0.000000	11.426745	-1.787915	-4.443813	20.292546	0.354172	35.533431	15.579390	0.000000	0.260759	-0.109750	-1.738312	0.484256	-0.145967	-1.846957	0.428401	-0.266846	-1.846957	0.298022	-0.266846	-1.521023	0.242141	-0.223802	-1.412379	0.148998	-0.170003	-1.303734	1.862577	-1.241514	-9.667970	0.000000	0.000000	25.805467	1.415576	-5.965324	20.988393	-35.248582	53.566764	71.171249	85.954503	18.166648	17.930386	16.290129	-26.635907	51.925116	58.641106	76.913107	-5.330641	-4.686163
4.966667	0.185158	-5.615901	107.541231	0.209494	1.008280	0.156011	7.652280	-1.798964	-30.700801	19.542755	0.341085	39.253045	16.151598	0.000000	12.348479	-1.857787	-4.037271	20.653030	0.360463	35.452757	15.162401	0.000000	0.285224	-0.082976	-1.827919	0.529689	-0.110359	-1.942164	0.468594	-0.201749	-1.942164	0.325982	-0.201749	-1.599429	0.264859	-0.169206	-1.485184	0.162977	-0.128530	-1.370939	2.037326	-0.938646	-10.166337	0.000000	0.000000	26.381858	1.706576	-5.366574	22.676101	-33.587874	56.071827	67.078792	85.920608	17.842849	17.316573	17.565231	-25.396809	52.700190	55.518303	76.642978	-5.582431	-4.417781
